<svg width="99" height="93" viewBox="0 0 99 93" fill="none" xmlns="http://www.w3.org/2000/svg">
<g filter="url(#filter0_d_2007_1570)">
<rect x="7.5" y="7.5" width="84" height="78" rx="7.5" stroke="#4B3D10" shape-rendering="crispEdges"/>
</g>
<path d="M70.0815 50.1442C68.0929 50.1544 66.3646 50.6249 64.9175 51.3205C64.3865 50.2874 63.8555 49.3667 63.7618 48.6916C63.6577 47.9039 63.5328 47.4231 63.6577 46.482C63.7826 45.5409 64.3449 44.2009 64.3344 44.0986C64.324 43.9963 64.2095 43.5155 63.0643 43.5053C61.919 43.495 60.93 43.7201 60.8154 44.0167C60.7009 44.3134 60.4823 44.9885 60.3365 45.6841C60.1387 46.7071 58.046 50.359 56.8487 52.2719C56.4635 51.5251 56.1304 50.8704 56.0575 50.3487C55.9534 49.5611 55.8284 49.0803 55.9534 48.1392C56.0783 47.1981 56.6405 45.858 56.6301 45.7557C56.6197 45.6534 56.5052 45.1727 55.3599 45.1624C54.2147 45.1522 53.2256 45.3772 53.1111 45.6739C52.9966 45.9706 52.8716 46.6662 52.6322 47.3413C52.3927 48.0164 49.6129 54.1132 48.8841 55.6885C48.5093 56.4966 48.1866 57.1411 47.9575 57.581C47.9575 57.581 47.9471 57.6116 47.9159 57.6628C47.7181 58.0413 47.6035 58.2459 47.6035 58.2459C47.6035 58.2459 47.6035 58.2459 47.6035 58.2561C47.4474 58.5323 47.2808 58.788 47.1975 58.788C47.135 58.788 47.0205 58.0515 47.2183 57.049C47.6348 54.9315 48.6238 51.6377 48.6134 51.5251C48.6134 51.4638 48.8008 50.8909 47.9679 50.5943C47.1558 50.2976 46.8643 50.7886 46.7914 50.7886C46.7186 50.7886 46.6665 50.9625 46.6665 50.9625C46.6665 50.9625 47.5723 47.2595 44.9382 47.2595C43.2933 47.2595 41.0236 49.0292 39.8992 50.6249C39.1912 51.0034 37.6816 51.8116 36.0678 52.6811C35.4536 53.0186 34.8185 53.3562 34.225 53.6733C34.1834 53.6324 34.1418 53.5812 34.1001 53.5403C30.9143 50.1953 25.0215 47.8323 25.2714 43.3416C25.3651 41.7049 25.9377 37.4085 36.5884 32.1915C45.3547 27.9463 52.3302 29.1227 53.538 31.7312C55.2662 35.4547 49.8003 42.3698 40.7425 43.3723C37.286 43.7508 35.4744 42.4414 35.0163 41.9504C34.5374 41.4389 34.4645 41.4082 34.2875 41.5105C33.996 41.664 34.1834 42.1243 34.2875 42.3902C34.5582 43.0859 35.6722 44.3134 37.5567 44.9169C39.2225 45.4488 43.2724 45.7455 48.1761 43.8837C53.6629 41.7969 57.9523 35.9969 56.6926 31.1379C55.4328 26.2073 47.1038 24.5808 39.2225 27.3325C34.5374 28.9692 29.4567 31.5471 25.8023 34.9023C21.4608 38.8918 20.7737 42.3596 21.0548 43.8121C22.0647 48.9678 29.3005 52.323 32.1948 54.8088C32.0491 54.8906 31.9137 54.9622 31.7992 55.0236C30.3521 55.7294 24.8341 58.563 23.4598 61.5602C21.8981 64.9564 23.7097 67.391 24.907 67.7183C28.6238 68.731 32.4447 66.9102 34.4957 63.9027C36.5468 60.8953 36.2969 56.9876 35.3495 55.1975C35.3391 55.177 35.3286 55.1566 35.3078 55.1361C35.6826 54.9213 36.0678 54.6963 36.4426 54.4814C37.1818 54.0518 37.9106 53.6529 38.5353 53.3255C38.1813 54.2768 37.921 55.4123 37.7961 57.049C37.6399 58.9722 38.4416 61.4681 39.4931 62.4502C39.9617 62.8798 40.5135 62.89 40.8674 62.89C42.096 62.89 42.6478 61.8875 43.262 60.7009C44.0116 59.2484 44.6884 57.5605 44.6884 57.5605C44.6884 57.5605 43.8451 62.1228 46.1355 62.1228C46.9684 62.1228 47.8118 61.059 48.1866 60.5168C48.1866 60.527 48.1866 60.527 48.1866 60.527C48.1866 60.527 48.2074 60.4963 48.249 60.4247C48.3323 60.2918 48.3844 60.2099 48.3844 60.2099C48.3844 60.2099 48.3844 60.1997 48.3844 60.1895C48.7175 59.6166 49.4671 58.3175 50.5812 56.1591C52.0179 53.3767 53.4026 49.8987 53.4026 49.8987C53.4026 49.8987 53.5275 50.7477 53.9544 52.1594C54.2043 52.9879 54.7248 53.8984 55.1413 54.7781C54.8081 55.2384 54.5999 55.4942 54.5999 55.4942C54.5999 55.4942 54.5999 55.4942 54.6103 55.5044C54.3396 55.8522 54.0481 56.2307 53.7254 56.5989C52.5905 57.9288 51.2371 59.4529 51.0497 59.8928C50.831 60.4145 50.8831 60.793 51.2995 61.0999C51.6015 61.3249 52.1428 61.3556 52.6946 61.3249C53.7149 61.2533 54.4333 61.0078 54.7873 60.8544C55.3391 60.66 55.9846 60.3634 56.5885 59.9235C57.7025 59.1154 58.3792 57.9594 58.3167 56.4353C58.2855 55.5964 58.0044 54.7576 57.6608 53.97C57.7649 53.8268 57.8586 53.6835 57.9627 53.5403C59.7222 51.0137 61.0861 48.2415 61.0861 48.2415C61.0861 48.2415 61.2111 49.0905 61.6379 50.5022C61.8461 51.2183 62.273 51.9957 62.6478 52.7527C60.9924 54.0723 59.9721 55.6067 59.6077 56.6092C58.9518 58.4709 59.462 59.3097 60.4302 59.5041C60.8675 59.5962 61.4922 59.3916 61.9503 59.1972C62.5333 59.0131 63.2204 58.696 63.8763 58.2254C64.9903 57.4173 66.0627 56.292 66.0002 54.7679C65.969 54.0723 65.7816 53.3869 65.5213 52.722C66.9268 52.1491 68.7384 51.832 71.0497 52.098C76.0055 52.6708 76.9841 55.709 76.7967 56.9876C76.6093 58.2663 75.5682 58.9619 75.2246 59.1767C74.8811 59.3916 74.7665 59.4632 74.7978 59.6166C74.8394 59.8417 75.006 59.8314 75.2975 59.7905C75.7036 59.7189 77.9003 58.7573 77.994 56.4046C78.1502 53.3971 75.235 50.1135 70.0815 50.1442ZM31.8513 62.8082C30.2063 64.5677 27.9158 65.2326 26.9267 64.67C25.8648 64.0664 26.2812 61.4681 28.301 59.6064C29.5296 58.4709 31.1121 57.4173 32.1636 56.7728C32.4031 56.6296 32.7571 56.425 33.1839 56.1693C33.2568 56.1284 33.2984 56.1079 33.2984 56.1079C33.3817 56.0568 33.465 56.0056 33.5483 55.9545C34.2875 58.6141 33.5795 60.9567 31.8513 62.8082ZM43.8242 54.8088C43.2516 56.1795 42.0543 59.6882 41.3255 59.4939C40.7009 59.3302 40.3156 56.6705 41.2006 54.0416C41.6483 52.722 42.5957 51.1466 43.1475 50.5329C44.0429 49.5509 45.0319 49.2235 45.2714 49.6225C45.5733 50.1442 44.1782 53.9495 43.8242 54.8088ZM53.7045 59.4529C53.4651 59.5757 53.236 59.6575 53.1319 59.5962C53.059 59.5552 53.236 59.3916 53.236 59.3916C53.236 59.3916 54.475 58.0822 54.9643 57.4889C55.2454 57.1411 55.5786 56.7319 55.9325 56.2716C55.9325 56.3125 55.9325 56.3637 55.9325 56.4046C55.9325 57.9697 54.3917 59.0233 53.7045 59.4529ZM61.3256 57.7446C61.1486 57.6219 61.1798 57.2127 61.7733 55.934C62.0023 55.4328 62.5437 54.594 63.4703 53.7858C63.5744 54.1132 63.6473 54.4303 63.6369 54.7269C63.6265 56.7012 62.1897 57.4377 61.3256 57.7446Z" fill="#CD6799"/>
<defs>
<filter id="filter0_d_2007_1570" x="0.5" y="0.5" width="98" height="92" filterUnits="userSpaceOnUse" color-interpolation-filters="sRGB">
<feFlood flood-opacity="0" result="BackgroundImageFix"/>
<feColorMatrix in="SourceAlpha" type="matrix" values="0 0 0 0 0 0 0 0 0 0 0 0 0 0 0 0 0 0 127 0" result="hardAlpha"/>
<feMorphology radius="1" operator="dilate" in="SourceAlpha" result="effect1_dropShadow_2007_1570"/>
<feOffset/>
<feGaussianBlur stdDeviation="2.75"/>
<feComposite in2="hardAlpha" operator="out"/>
<feColorMatrix type="matrix" values="0 0 0 0 0.939014 0 0 0 0 0.880287 0 0 0 0 0.698514 0 0 0 1 0"/>
<feBlend mode="normal" in2="BackgroundImageFix" result="effect1_dropShadow_2007_1570"/>
<feBlend mode="normal" in="SourceGraphic" in2="effect1_dropShadow_2007_1570" result="shape"/>
</filter>
</defs>
</svg>
