<svg width="35" height="35" viewBox="0 0 35 35" fill="none" xmlns="http://www.w3.org/2000/svg">
<rect width="35" height="35" rx="4" fill="black"/>
<g clip-path="url(#clip0_1_601)">
<path d="M13.25 17.25H14.75V18.75H13.25V17.25ZM23.75 13.5V24C23.75 24.825 23.075 25.5 22.25 25.5H11.75C11.3522 25.5 10.9706 25.342 10.6893 25.0607C10.408 24.7794 10.25 24.3978 10.25 24L10.2575 13.5C10.2575 12.675 10.9175 12 11.75 12H12.5V10.5H14V12H20V10.5H21.5V12H22.25C23.075 12 23.75 12.675 23.75 13.5ZM11.75 15H22.25V13.5H11.75V15ZM22.25 24V16.5H11.75V24H22.25ZM19.25 18.75H20.75V17.25H19.25V18.75ZM16.25 18.75H17.75V17.25H16.25V18.75Z" fill="#CCC0C0"/>
</g>
<defs>
<clipPath id="clip0_1_601">
<rect width="18" height="18" fill="white" transform="translate(8 9)"/>
</clipPath>
</defs>
</svg>
